<svg width="14pt" height="13pt" viewBox="0 0 14 13" version="1.1">
<path style=" stroke:none;fill-rule:nonzero;;fill-opacity:1;" d="M 13.246094 2.988281 C 13.335938 2.671875 13.246094 2.4375 12.8125 2.4375 L 11.382812 2.4375 C 11.019531 2.4375 10.851562 2.636719 10.761719 2.863281 C 10.761719 2.863281 10.03125 4.71875 9 5.921875 C 8.667969 6.269531 8.515625 6.378906 8.332031 6.378906 C 8.242188 6.378906 8.101562 6.269531 8.101562 5.953125 L 8.101562 2.988281 C 8.101562 2.609375 8 2.4375 7.699219 2.4375 L 5.449219 2.4375 C 5.222656 2.4375 5.085938 2.617188 5.085938 2.78125 C 5.085938 3.140625 5.601562 3.226562 5.652344 4.242188 L 5.652344 6.445312 C 5.652344 6.925781 5.570312 7.015625 5.386719 7.015625 C 4.902344 7.015625 3.722656 5.152344 3.019531 3.019531 C 2.878906 2.605469 2.742188 2.4375 2.375 2.4375 L 0.941406 2.4375 C 0.535156 2.4375 0.453125 2.636719 0.453125 2.863281 C 0.453125 3.257812 0.9375 5.226562 2.714844 7.824219 C 3.898438 9.601562 5.566406 10.5625 7.082031 10.5625 C 7.992188 10.5625 8.105469 10.347656 8.105469 9.980469 C 8.105469 8.285156 8.023438 8.125 8.480469 8.125 C 8.691406 8.125 9.054688 8.238281 9.90625 9.09375 C 10.878906 10.109375 11.039062 10.5625 11.585938 10.5625 L 13.015625 10.5625 C 13.425781 10.5625 13.628906 10.347656 13.511719 9.929688 C 13.238281 9.042969 11.398438 7.21875 11.316406 7.097656 C 11.105469 6.8125 11.164062 6.683594 11.316406 6.429688 C 11.320312 6.429688 13.066406 3.859375 13.246094 2.988281 Z M 13.246094 2.988281 "/>
</svg>
